<mxfile host="app.diagrams.net" modified="2020-08-14T14:29:00.518Z" agent="5.0 (Macintosh; Intel Mac OS X 10_13_6) AppleWebKit/537.36 (KHTML, like Gecko) Chrome/84.0.4147.105 Safari/537.36" etag="e9k198xr5eSqLkU0Hr8B" version="13.6.2" type="github">
  <diagram id="hp0X90MLAwM-L4VIES3X" name="Page-1">
    <mxGraphModel dx="1426" dy="804" grid="1" gridSize="10" guides="1" tooltips="1" connect="1" arrows="1" fold="1" page="1" pageScale="1" pageWidth="827" pageHeight="1169" math="0" shadow="0">
      <root>
        <mxCell id="0" />
        <mxCell id="1" parent="0" />
        <mxCell id="B58rnx8UWgMCeYeh_kUZ-48" value="" style="rounded=0;whiteSpace=wrap;html=1;" vertex="1" parent="1">
          <mxGeometry x="460" y="260" width="270" height="300" as="geometry" />
        </mxCell>
        <mxCell id="B58rnx8UWgMCeYeh_kUZ-23" value="" style="rounded=0;whiteSpace=wrap;html=1;" vertex="1" parent="1">
          <mxGeometry x="70" y="260" width="270" height="300" as="geometry" />
        </mxCell>
        <mxCell id="B58rnx8UWgMCeYeh_kUZ-1" value="Generic Event Architecture" style="text;html=1;strokeColor=none;fillColor=none;align=left;verticalAlign=middle;whiteSpace=wrap;rounded=0;fontSize=16;fontStyle=1" vertex="1" parent="1">
          <mxGeometry x="70" y="190" width="290" height="20" as="geometry" />
        </mxCell>
        <mxCell id="B58rnx8UWgMCeYeh_kUZ-3" value="Publishing Service (Event Source)" style="text;html=1;strokeColor=none;fillColor=none;align=left;verticalAlign=middle;whiteSpace=wrap;rounded=0;fontStyle=1" vertex="1" parent="1">
          <mxGeometry x="70" y="230" width="290" height="20" as="geometry" />
        </mxCell>
        <mxCell id="B58rnx8UWgMCeYeh_kUZ-5" value="webhook" style="rounded=1;whiteSpace=wrap;html=1;fillColor=#dae8fc;strokeColor=#6c8ebf;" vertex="1" parent="1">
          <mxGeometry x="260" y="280" width="90" height="30" as="geometry" />
        </mxCell>
        <mxCell id="B58rnx8UWgMCeYeh_kUZ-6" value="events" style="rounded=1;whiteSpace=wrap;html=1;fillColor=#dae8fc;strokeColor=#6c8ebf;" vertex="1" parent="1">
          <mxGeometry x="260" y="430" width="90" height="30" as="geometry" />
        </mxCell>
        <mxCell id="B58rnx8UWgMCeYeh_kUZ-29" style="edgeStyle=orthogonalEdgeStyle;rounded=0;orthogonalLoop=1;jettySize=auto;html=1;entryX=0.467;entryY=1.033;entryDx=0;entryDy=0;entryPerimeter=0;" edge="1" parent="1" source="B58rnx8UWgMCeYeh_kUZ-14" target="B58rnx8UWgMCeYeh_kUZ-40">
          <mxGeometry relative="1" as="geometry">
            <mxPoint x="122" y="495" as="targetPoint" />
          </mxGeometry>
        </mxCell>
        <mxCell id="B58rnx8UWgMCeYeh_kUZ-7" value="entity" style="rounded=1;whiteSpace=wrap;html=1;fillColor=#dae8fc;strokeColor=#6c8ebf;" vertex="1" parent="1">
          <mxGeometry x="260" y="499" width="90" height="30" as="geometry" />
        </mxCell>
        <mxCell id="B58rnx8UWgMCeYeh_kUZ-36" style="edgeStyle=orthogonalEdgeStyle;rounded=0;orthogonalLoop=1;jettySize=auto;html=1;entryX=1.05;entryY=0.32;entryDx=0;entryDy=0;entryPerimeter=0;" edge="1" parent="1" source="B58rnx8UWgMCeYeh_kUZ-9" target="B58rnx8UWgMCeYeh_kUZ-31">
          <mxGeometry relative="1" as="geometry" />
        </mxCell>
        <mxCell id="B58rnx8UWgMCeYeh_kUZ-9" value="create" style="rounded=1;whiteSpace=wrap;html=1;fillColor=#CFFDFF;" vertex="1" parent="1">
          <mxGeometry x="280" y="310" width="70" height="20" as="geometry" />
        </mxCell>
        <mxCell id="B58rnx8UWgMCeYeh_kUZ-37" style="edgeStyle=orthogonalEdgeStyle;rounded=0;orthogonalLoop=1;jettySize=auto;html=1;" edge="1" parent="1" source="B58rnx8UWgMCeYeh_kUZ-11" target="B58rnx8UWgMCeYeh_kUZ-31">
          <mxGeometry relative="1" as="geometry" />
        </mxCell>
        <mxCell id="B58rnx8UWgMCeYeh_kUZ-11" value="delete" style="rounded=1;whiteSpace=wrap;html=1;fillColor=#CFFDFF;" vertex="1" parent="1">
          <mxGeometry x="280" y="330" width="70" height="20" as="geometry" />
        </mxCell>
        <mxCell id="B58rnx8UWgMCeYeh_kUZ-38" style="edgeStyle=orthogonalEdgeStyle;rounded=0;orthogonalLoop=1;jettySize=auto;html=1;entryX=1;entryY=0.68;entryDx=0;entryDy=0;entryPerimeter=0;" edge="1" parent="1" source="B58rnx8UWgMCeYeh_kUZ-12" target="B58rnx8UWgMCeYeh_kUZ-31">
          <mxGeometry relative="1" as="geometry" />
        </mxCell>
        <mxCell id="B58rnx8UWgMCeYeh_kUZ-12" value="list" style="rounded=1;whiteSpace=wrap;html=1;fillColor=#CFFDFF;" vertex="1" parent="1">
          <mxGeometry x="280" y="350" width="70" height="20" as="geometry" />
        </mxCell>
        <mxCell id="B58rnx8UWgMCeYeh_kUZ-30" style="edgeStyle=orthogonalEdgeStyle;rounded=0;orthogonalLoop=1;jettySize=auto;html=1;entryX=0.975;entryY=0.66;entryDx=0;entryDy=0;entryPerimeter=0;" edge="1" parent="1" source="B58rnx8UWgMCeYeh_kUZ-13" target="B58rnx8UWgMCeYeh_kUZ-26">
          <mxGeometry relative="1" as="geometry" />
        </mxCell>
        <mxCell id="B58rnx8UWgMCeYeh_kUZ-13" value="list" style="rounded=1;whiteSpace=wrap;html=1;fillColor=#CFFDFF;" vertex="1" parent="1">
          <mxGeometry x="280" y="460" width="70" height="20" as="geometry" />
        </mxCell>
        <mxCell id="B58rnx8UWgMCeYeh_kUZ-14" value="get" style="rounded=1;whiteSpace=wrap;html=1;fillColor=#CFFDFF;" vertex="1" parent="1">
          <mxGeometry x="280" y="529" width="70" height="20" as="geometry" />
        </mxCell>
        <mxCell id="B58rnx8UWgMCeYeh_kUZ-17" style="edgeStyle=orthogonalEdgeStyle;rounded=0;orthogonalLoop=1;jettySize=auto;html=1;entryX=0.565;entryY=0;entryDx=0;entryDy=0;entryPerimeter=0;" edge="1" parent="1" source="B58rnx8UWgMCeYeh_kUZ-15" target="B58rnx8UWgMCeYeh_kUZ-16">
          <mxGeometry relative="1" as="geometry" />
        </mxCell>
        <mxCell id="B58rnx8UWgMCeYeh_kUZ-18" value="User &lt;br&gt;changes&lt;br&gt;something" style="edgeLabel;html=1;align=center;verticalAlign=middle;resizable=0;points=[];" vertex="1" connectable="0" parent="B58rnx8UWgMCeYeh_kUZ-17">
          <mxGeometry x="0.1085" y="3" relative="1" as="geometry">
            <mxPoint as="offset" />
          </mxGeometry>
        </mxCell>
        <mxCell id="B58rnx8UWgMCeYeh_kUZ-15" value="User" style="shape=umlActor;verticalLabelPosition=bottom;verticalAlign=top;html=1;outlineConnect=0;" vertex="1" parent="1">
          <mxGeometry x="80" y="280" width="30" height="60" as="geometry" />
        </mxCell>
        <mxCell id="B58rnx8UWgMCeYeh_kUZ-27" style="edgeStyle=orthogonalEdgeStyle;rounded=0;orthogonalLoop=1;jettySize=auto;html=1;" edge="1" parent="1" source="B58rnx8UWgMCeYeh_kUZ-16" target="B58rnx8UWgMCeYeh_kUZ-26">
          <mxGeometry relative="1" as="geometry" />
        </mxCell>
        <mxCell id="B58rnx8UWgMCeYeh_kUZ-20" value="Subscribing Service&lt;br&gt;" style="text;html=1;strokeColor=none;fillColor=none;align=left;verticalAlign=middle;whiteSpace=wrap;rounded=0;fontStyle=1" vertex="1" parent="1">
          <mxGeometry x="460" y="230" width="290" height="20" as="geometry" />
        </mxCell>
        <mxCell id="B58rnx8UWgMCeYeh_kUZ-21" value="webhook" style="rounded=1;whiteSpace=wrap;html=1;fillColor=#dae8fc;strokeColor=#6c8ebf;" vertex="1" parent="1">
          <mxGeometry x="440" y="355" width="120" height="30" as="geometry" />
        </mxCell>
        <mxCell id="B58rnx8UWgMCeYeh_kUZ-44" style="edgeStyle=orthogonalEdgeStyle;rounded=0;orthogonalLoop=1;jettySize=auto;html=1;" edge="1" parent="1" source="B58rnx8UWgMCeYeh_kUZ-22" target="B58rnx8UWgMCeYeh_kUZ-43">
          <mxGeometry relative="1" as="geometry" />
        </mxCell>
        <mxCell id="B58rnx8UWgMCeYeh_kUZ-22" value="recieve" style="rounded=1;whiteSpace=wrap;html=1;fillColor=#CFFDFF;" vertex="1" parent="1">
          <mxGeometry x="440" y="385" width="70" height="20" as="geometry" />
        </mxCell>
        <mxCell id="B58rnx8UWgMCeYeh_kUZ-34" style="edgeStyle=orthogonalEdgeStyle;rounded=0;orthogonalLoop=1;jettySize=auto;html=1;entryX=0;entryY=0.5;entryDx=0;entryDy=0;exitX=0.5;exitY=-0.02;exitDx=0;exitDy=0;exitPerimeter=0;" edge="1" parent="1" source="B58rnx8UWgMCeYeh_kUZ-26" target="B58rnx8UWgMCeYeh_kUZ-33">
          <mxGeometry relative="1" as="geometry" />
        </mxCell>
        <mxCell id="B58rnx8UWgMCeYeh_kUZ-35" style="edgeStyle=orthogonalEdgeStyle;rounded=0;orthogonalLoop=1;jettySize=auto;html=1;" edge="1" parent="1" source="B58rnx8UWgMCeYeh_kUZ-26" target="B58rnx8UWgMCeYeh_kUZ-31">
          <mxGeometry relative="1" as="geometry" />
        </mxCell>
        <mxCell id="B58rnx8UWgMCeYeh_kUZ-26" value="&lt;br&gt;Event&lt;br&gt;Log" style="shape=cylinder2;whiteSpace=wrap;html=1;boundedLbl=1;backgroundOutline=1;size=7;fillColor=#e1d5e7;strokeColor=#9673a6;" vertex="1" parent="1">
          <mxGeometry x="191" y="423" width="40" height="50" as="geometry" />
        </mxCell>
        <mxCell id="B58rnx8UWgMCeYeh_kUZ-31" value="&lt;br&gt;Web&lt;br&gt;Hooks" style="shape=cylinder2;whiteSpace=wrap;html=1;boundedLbl=1;backgroundOutline=1;size=7;fillColor=#e1d5e7;strokeColor=#9673a6;" vertex="1" parent="1">
          <mxGeometry x="191" y="315" width="40" height="50" as="geometry" />
        </mxCell>
        <mxCell id="B58rnx8UWgMCeYeh_kUZ-39" style="edgeStyle=orthogonalEdgeStyle;rounded=0;orthogonalLoop=1;jettySize=auto;html=1;entryX=0;entryY=0.5;entryDx=0;entryDy=0;" edge="1" parent="1" source="B58rnx8UWgMCeYeh_kUZ-33" target="B58rnx8UWgMCeYeh_kUZ-22">
          <mxGeometry relative="1" as="geometry" />
        </mxCell>
        <mxCell id="B58rnx8UWgMCeYeh_kUZ-33" value="notifier" style="rounded=1;whiteSpace=wrap;html=1;fillColor=#fff2cc;strokeColor=#d6b656;" vertex="1" parent="1">
          <mxGeometry x="260" y="385" width="70" height="20" as="geometry" />
        </mxCell>
        <mxCell id="B58rnx8UWgMCeYeh_kUZ-40" value="Entity" style="shape=cylinder2;whiteSpace=wrap;html=1;boundedLbl=1;backgroundOutline=1;size=8;fillColor=#d5e8d4;strokeColor=#82b366;" vertex="1" parent="1">
          <mxGeometry x="90" y="439" width="60" height="60" as="geometry" />
        </mxCell>
        <mxCell id="B58rnx8UWgMCeYeh_kUZ-16" value="" style="verticalLabelPosition=bottom;verticalAlign=top;html=1;shape=mxgraph.basic.flash" vertex="1" parent="1">
          <mxGeometry x="127" y="405" width="20" height="50" as="geometry" />
        </mxCell>
        <mxCell id="B58rnx8UWgMCeYeh_kUZ-46" style="edgeStyle=orthogonalEdgeStyle;rounded=0;orthogonalLoop=1;jettySize=auto;html=1;entryX=1;entryY=0.5;entryDx=0;entryDy=0;" edge="1" parent="1" source="B58rnx8UWgMCeYeh_kUZ-41" target="B58rnx8UWgMCeYeh_kUZ-14">
          <mxGeometry relative="1" as="geometry" />
        </mxCell>
        <mxCell id="B58rnx8UWgMCeYeh_kUZ-41" value="entity client" style="rounded=1;whiteSpace=wrap;html=1;fillColor=#fff2cc;strokeColor=#d6b656;" vertex="1" parent="1">
          <mxGeometry x="480" y="500" width="70" height="20" as="geometry" />
        </mxCell>
        <mxCell id="B58rnx8UWgMCeYeh_kUZ-42" value="Entity&lt;br&gt;Copy" style="shape=cylinder2;whiteSpace=wrap;html=1;boundedLbl=1;backgroundOutline=1;size=8;fillColor=#d5e8d4;strokeColor=#82b366;" vertex="1" parent="1">
          <mxGeometry x="660" y="473" width="60" height="60" as="geometry" />
        </mxCell>
        <mxCell id="B58rnx8UWgMCeYeh_kUZ-45" style="edgeStyle=orthogonalEdgeStyle;rounded=0;orthogonalLoop=1;jettySize=auto;html=1;entryX=1;entryY=0.5;entryDx=0;entryDy=0;exitX=0.5;exitY=1;exitDx=0;exitDy=0;" edge="1" parent="1" source="B58rnx8UWgMCeYeh_kUZ-43" target="B58rnx8UWgMCeYeh_kUZ-41">
          <mxGeometry relative="1" as="geometry" />
        </mxCell>
        <mxCell id="B58rnx8UWgMCeYeh_kUZ-47" style="edgeStyle=orthogonalEdgeStyle;rounded=0;orthogonalLoop=1;jettySize=auto;html=1;entryX=0.5;entryY=-0.017;entryDx=0;entryDy=0;entryPerimeter=0;" edge="1" parent="1" source="B58rnx8UWgMCeYeh_kUZ-43" target="B58rnx8UWgMCeYeh_kUZ-42">
          <mxGeometry relative="1" as="geometry" />
        </mxCell>
        <mxCell id="B58rnx8UWgMCeYeh_kUZ-43" value="Event Processor" style="rounded=1;whiteSpace=wrap;html=1;fillColor=#fff2cc;strokeColor=#d6b656;" vertex="1" parent="1">
          <mxGeometry x="581" y="424" width="70" height="50" as="geometry" />
        </mxCell>
        <mxCell id="B58rnx8UWgMCeYeh_kUZ-50" style="edgeStyle=orthogonalEdgeStyle;rounded=0;orthogonalLoop=1;jettySize=auto;html=1;entryX=1;entryY=0.5;entryDx=0;entryDy=0;" edge="1" parent="1" source="B58rnx8UWgMCeYeh_kUZ-49" target="B58rnx8UWgMCeYeh_kUZ-13">
          <mxGeometry relative="1" as="geometry" />
        </mxCell>
        <mxCell id="B58rnx8UWgMCeYeh_kUZ-51" style="edgeStyle=orthogonalEdgeStyle;rounded=0;orthogonalLoop=1;jettySize=auto;html=1;entryX=0;entryY=0.5;entryDx=0;entryDy=0;" edge="1" parent="1" source="B58rnx8UWgMCeYeh_kUZ-49" target="B58rnx8UWgMCeYeh_kUZ-43">
          <mxGeometry relative="1" as="geometry" />
        </mxCell>
        <mxCell id="B58rnx8UWgMCeYeh_kUZ-49" value="event client" style="rounded=1;whiteSpace=wrap;html=1;fillColor=#fff2cc;strokeColor=#d6b656;" vertex="1" parent="1">
          <mxGeometry x="480" y="440" width="70" height="20" as="geometry" />
        </mxCell>
        <mxCell id="B58rnx8UWgMCeYeh_kUZ-54" style="edgeStyle=orthogonalEdgeStyle;rounded=0;orthogonalLoop=1;jettySize=auto;html=1;entryX=1;entryY=0.5;entryDx=0;entryDy=0;" edge="1" parent="1" source="B58rnx8UWgMCeYeh_kUZ-53" target="B58rnx8UWgMCeYeh_kUZ-9">
          <mxGeometry relative="1" as="geometry" />
        </mxCell>
        <mxCell id="B58rnx8UWgMCeYeh_kUZ-53" value="Administrator" style="shape=umlActor;verticalLabelPosition=bottom;verticalAlign=top;html=1;outlineConnect=0;" vertex="1" parent="1">
          <mxGeometry x="610" y="270" width="30" height="60" as="geometry" />
        </mxCell>
      </root>
    </mxGraphModel>
  </diagram>
</mxfile>
